<mxfile host="Electron" modified="2023-09-06T02:24:42.507Z" agent="Mozilla/5.0 (Windows NT 10.0; Win64; x64) AppleWebKit/537.36 (KHTML, like Gecko) draw.io/21.6.8 Chrome/114.0.5735.289 Electron/25.5.0 Safari/537.36" etag="V-snvJD9GRdKDJ1mF5d3" version="21.6.8" type="device">
  <diagram name="第 1 页" id="91P1MKDjnM98F7QnH0Cg">
    <mxGraphModel dx="1418" dy="828" grid="0" gridSize="10" guides="1" tooltips="1" connect="1" arrows="1" fold="1" page="1" pageScale="1" pageWidth="827" pageHeight="1169" math="0" shadow="0">
      <root>
        <mxCell id="0" />
        <mxCell id="1" parent="0" />
        <mxCell id="ptOT3qZYD3eIL-_pdCU0-108" style="edgeStyle=orthogonalEdgeStyle;rounded=0;orthogonalLoop=1;jettySize=auto;html=1;exitX=1;exitY=0.5;exitDx=0;exitDy=0;entryX=0;entryY=0.5;entryDx=0;entryDy=0;" parent="1" source="ptOT3qZYD3eIL-_pdCU0-2" target="ptOT3qZYD3eIL-_pdCU0-16" edge="1">
          <mxGeometry relative="1" as="geometry" />
        </mxCell>
        <mxCell id="ptOT3qZYD3eIL-_pdCU0-2" value="句子切割" style="rounded=1;whiteSpace=wrap;html=1;fillColor=#fff2cc;gradientColor=#ffd966;strokeColor=#d6b656;" parent="1" vertex="1">
          <mxGeometry x="69.5" y="785" width="50" height="40" as="geometry" />
        </mxCell>
        <mxCell id="ptOT3qZYD3eIL-_pdCU0-6" style="edgeStyle=orthogonalEdgeStyle;rounded=0;orthogonalLoop=1;jettySize=auto;html=1;exitX=0.25;exitY=1;exitDx=0;exitDy=0;entryX=0.5;entryY=0;entryDx=0;entryDy=0;" parent="1" source="ptOT3qZYD3eIL-_pdCU0-11" target="ptOT3qZYD3eIL-_pdCU0-2" edge="1">
          <mxGeometry relative="1" as="geometry" />
        </mxCell>
        <mxCell id="ptOT3qZYD3eIL-_pdCU0-8" style="edgeStyle=orthogonalEdgeStyle;rounded=0;orthogonalLoop=1;jettySize=auto;html=1;exitX=0;exitY=0.5;exitDx=0;exitDy=0;entryX=0;entryY=0.5;entryDx=0;entryDy=0;fillColor=#f8cecc;gradientColor=#ea6b66;strokeColor=#b85450;" parent="1" source="ptOT3qZYD3eIL-_pdCU0-11" target="ptOT3qZYD3eIL-_pdCU0-18" edge="1">
          <mxGeometry relative="1" as="geometry" />
        </mxCell>
        <mxCell id="ptOT3qZYD3eIL-_pdCU0-109" style="edgeStyle=orthogonalEdgeStyle;rounded=0;orthogonalLoop=1;jettySize=auto;html=1;exitX=0.75;exitY=1;exitDx=0;exitDy=0;entryX=0.5;entryY=0;entryDx=0;entryDy=0;" parent="1" source="ptOT3qZYD3eIL-_pdCU0-11" target="ptOT3qZYD3eIL-_pdCU0-16" edge="1">
          <mxGeometry relative="1" as="geometry" />
        </mxCell>
        <mxCell id="ptOT3qZYD3eIL-_pdCU0-11" value="分片" style="rounded=1;whiteSpace=wrap;html=1;fillColor=#fff2cc;gradientColor=#ffd966;strokeColor=#d6b656;" parent="1" vertex="1">
          <mxGeometry x="80" y="705" width="60" height="40" as="geometry" />
        </mxCell>
        <mxCell id="ptOT3qZYD3eIL-_pdCU0-110" style="edgeStyle=orthogonalEdgeStyle;rounded=0;orthogonalLoop=1;jettySize=auto;html=1;exitX=0.5;exitY=1;exitDx=0;exitDy=0;entryX=0.5;entryY=0;entryDx=0;entryDy=0;" parent="1" source="ptOT3qZYD3eIL-_pdCU0-16" target="ptOT3qZYD3eIL-_pdCU0-23" edge="1">
          <mxGeometry relative="1" as="geometry" />
        </mxCell>
        <mxCell id="ptOT3qZYD3eIL-_pdCU0-16" value="向量化" style="rounded=1;whiteSpace=wrap;html=1;fillColor=#fff2cc;gradientColor=#ffd966;strokeColor=#d6b656;" parent="1" vertex="1">
          <mxGeometry x="155.5" y="785" width="60" height="40" as="geometry" />
        </mxCell>
        <mxCell id="ptOT3qZYD3eIL-_pdCU0-18" value="存ES" style="rounded=1;whiteSpace=wrap;html=1;fillColor=#d5e8d4;strokeColor=#82b366;" parent="1" vertex="1">
          <mxGeometry x="40" y="865" width="60" height="40" as="geometry" />
        </mxCell>
        <mxCell id="ptOT3qZYD3eIL-_pdCU0-23" value="存Milvus" style="rounded=1;whiteSpace=wrap;html=1;fillColor=#d5e8d4;gradientColor=#97d077;strokeColor=#82b366;" parent="1" vertex="1">
          <mxGeometry x="155.5" y="865" width="60" height="40" as="geometry" />
        </mxCell>
        <mxCell id="ptOT3qZYD3eIL-_pdCU0-33" style="rounded=0;orthogonalLoop=1;jettySize=auto;html=1;entryX=0;entryY=0.5;entryDx=0;entryDy=0;" parent="1" target="ptOT3qZYD3eIL-_pdCU0-128" edge="1">
          <mxGeometry relative="1" as="geometry">
            <mxPoint x="255" y="120" as="sourcePoint" />
            <mxPoint x="605" y="325" as="targetPoint" />
          </mxGeometry>
        </mxCell>
        <mxCell id="ptOT3qZYD3eIL-_pdCU0-34" value="文本文件&lt;br&gt;（word、pdf、txt，md）" style="edgeLabel;html=1;align=center;verticalAlign=middle;resizable=0;points=[];" parent="ptOT3qZYD3eIL-_pdCU0-33" vertex="1" connectable="0">
          <mxGeometry x="-0.528" relative="1" as="geometry">
            <mxPoint x="42" y="-29" as="offset" />
          </mxGeometry>
        </mxCell>
        <mxCell id="ptOT3qZYD3eIL-_pdCU0-36" style="rounded=0;orthogonalLoop=1;jettySize=auto;html=1;exitX=1;exitY=0.5;exitDx=0;exitDy=0;entryX=0;entryY=0.5;entryDx=0;entryDy=0;" parent="1" source="ptOT3qZYD3eIL-_pdCU0-64" target="ptOT3qZYD3eIL-_pdCU0-35" edge="1">
          <mxGeometry relative="1" as="geometry">
            <mxPoint x="695" y="225" as="sourcePoint" />
          </mxGeometry>
        </mxCell>
        <mxCell id="ptOT3qZYD3eIL-_pdCU0-37" value="表格&lt;br&gt;（excel，csv）" style="edgeLabel;html=1;align=center;verticalAlign=middle;resizable=0;points=[];" parent="ptOT3qZYD3eIL-_pdCU0-36" vertex="1" connectable="0">
          <mxGeometry x="-0.1452" y="-1" relative="1" as="geometry">
            <mxPoint x="-11" y="6" as="offset" />
          </mxGeometry>
        </mxCell>
        <mxCell id="ptOT3qZYD3eIL-_pdCU0-39" style="rounded=0;orthogonalLoop=1;jettySize=auto;html=1;entryX=0;entryY=0.5;entryDx=0;entryDy=0;" parent="1" source="ptOT3qZYD3eIL-_pdCU0-64" target="ptOT3qZYD3eIL-_pdCU0-50" edge="1">
          <mxGeometry relative="1" as="geometry">
            <mxPoint x="715" y="215" as="sourcePoint" />
          </mxGeometry>
        </mxCell>
        <mxCell id="ptOT3qZYD3eIL-_pdCU0-40" value="图片&lt;br&gt;（jpg、png等）" style="edgeLabel;html=1;align=center;verticalAlign=middle;resizable=0;points=[];" parent="ptOT3qZYD3eIL-_pdCU0-39" vertex="1" connectable="0">
          <mxGeometry x="0.125" y="-3" relative="1" as="geometry">
            <mxPoint x="-14" y="2" as="offset" />
          </mxGeometry>
        </mxCell>
        <mxCell id="ptOT3qZYD3eIL-_pdCU0-51" style="rounded=0;orthogonalLoop=1;jettySize=auto;html=1;exitX=0.5;exitY=0;exitDx=0;exitDy=0;entryX=0.25;entryY=1;entryDx=0;entryDy=0;" parent="1" source="ptOT3qZYD3eIL-_pdCU0-64" target="ptOT3qZYD3eIL-_pdCU0-38" edge="1">
          <mxGeometry relative="1" as="geometry">
            <mxPoint x="655" y="205" as="sourcePoint" />
          </mxGeometry>
        </mxCell>
        <mxCell id="ptOT3qZYD3eIL-_pdCU0-52" value="文本" style="edgeLabel;html=1;align=center;verticalAlign=middle;resizable=0;points=[];" parent="ptOT3qZYD3eIL-_pdCU0-51" vertex="1" connectable="0">
          <mxGeometry x="-0.045" relative="1" as="geometry">
            <mxPoint as="offset" />
          </mxGeometry>
        </mxCell>
        <mxCell id="ptOT3qZYD3eIL-_pdCU0-57" value="多媒体文件" style="rounded=0;orthogonalLoop=1;jettySize=auto;html=1;exitX=0.5;exitY=1;exitDx=0;exitDy=0;entryX=0;entryY=0.5;entryDx=0;entryDy=0;" parent="1" source="ptOT3qZYD3eIL-_pdCU0-64" edge="1">
          <mxGeometry relative="1" as="geometry">
            <mxPoint x="695" y="205" as="sourcePoint" />
            <mxPoint x="385" y="295" as="targetPoint" />
          </mxGeometry>
        </mxCell>
        <mxCell id="ptOT3qZYD3eIL-_pdCU0-35" value="表格问答&lt;br&gt;（统计、生成图）" style="rounded=1;whiteSpace=wrap;html=1;fillColor=#fff2cc;gradientColor=#ffd966;strokeColor=#d6b656;" parent="1" vertex="1">
          <mxGeometry x="385" y="145" width="80" height="40" as="geometry" />
        </mxCell>
        <mxCell id="ptOT3qZYD3eIL-_pdCU0-38" value="文本问答" style="rounded=1;whiteSpace=wrap;html=1;fillColor=#fff2cc;gradientColor=#ffd966;strokeColor=#d6b656;" parent="1" vertex="1">
          <mxGeometry x="235" y="10" width="60" height="40" as="geometry" />
        </mxCell>
        <mxCell id="ptOT3qZYD3eIL-_pdCU0-44" value="文档问答" style="rounded=1;whiteSpace=wrap;html=1;fillColor=#fff2cc;gradientColor=#ffd966;strokeColor=#d6b656;" parent="1" vertex="1">
          <mxGeometry x="385" y="75" width="60" height="40" as="geometry" />
        </mxCell>
        <mxCell id="ptOT3qZYD3eIL-_pdCU0-45" value="文本摘要" style="rounded=1;whiteSpace=wrap;html=1;fillColor=#fff2cc;gradientColor=#ffd966;strokeColor=#d6b656;" parent="1" vertex="1">
          <mxGeometry x="445" y="75" width="60" height="40" as="geometry" />
        </mxCell>
        <mxCell id="ptOT3qZYD3eIL-_pdCU0-47" value="实体抽取" style="rounded=1;whiteSpace=wrap;html=1;fillColor=#f8cecc;strokeColor=#b85450;" parent="1" vertex="1">
          <mxGeometry x="565" y="75" width="60" height="40" as="geometry" />
        </mxCell>
        <mxCell id="ptOT3qZYD3eIL-_pdCU0-48" value="图谱生成" style="rounded=1;whiteSpace=wrap;html=1;fillColor=#f8cecc;strokeColor=#b85450;" parent="1" vertex="1">
          <mxGeometry x="625" y="75" width="60" height="40" as="geometry" />
        </mxCell>
        <mxCell id="ptOT3qZYD3eIL-_pdCU0-49" value="翻译" style="rounded=1;whiteSpace=wrap;html=1;fillColor=#fff2cc;gradientColor=#ffd966;strokeColor=#d6b656;" parent="1" vertex="1">
          <mxGeometry x="505" y="75" width="60" height="40" as="geometry" />
        </mxCell>
        <mxCell id="ptOT3qZYD3eIL-_pdCU0-50" value="图片识别问答" style="rounded=1;whiteSpace=wrap;html=1;fillColor=#f8cecc;strokeColor=#b85450;" parent="1" vertex="1">
          <mxGeometry x="385" y="205" width="80" height="40" as="geometry" />
        </mxCell>
        <mxCell id="ptOT3qZYD3eIL-_pdCU0-56" value="多媒体识别问答" style="rounded=1;whiteSpace=wrap;html=1;fillColor=#f8cecc;strokeColor=#b85450;" parent="1" vertex="1">
          <mxGeometry x="340" y="270" width="80" height="40" as="geometry" />
        </mxCell>
        <mxCell id="ptOT3qZYD3eIL-_pdCU0-119" style="edgeStyle=orthogonalEdgeStyle;rounded=0;orthogonalLoop=1;jettySize=auto;html=1;exitX=0.5;exitY=1;exitDx=0;exitDy=0;entryX=0.5;entryY=0;entryDx=0;entryDy=0;" parent="1" source="ptOT3qZYD3eIL-_pdCU0-58" target="ptOT3qZYD3eIL-_pdCU0-117" edge="1">
          <mxGeometry relative="1" as="geometry" />
        </mxCell>
        <mxCell id="ptOT3qZYD3eIL-_pdCU0-124" value="csv" style="edgeLabel;html=1;align=center;verticalAlign=middle;resizable=0;points=[];" parent="ptOT3qZYD3eIL-_pdCU0-119" vertex="1" connectable="0">
          <mxGeometry x="-0.25" y="-1" relative="1" as="geometry">
            <mxPoint as="offset" />
          </mxGeometry>
        </mxCell>
        <mxCell id="ptOT3qZYD3eIL-_pdCU0-58" value="表格转换" style="rounded=1;whiteSpace=wrap;html=1;fillColor=#fff2cc;gradientColor=#ffd966;strokeColor=#d6b656;" parent="1" vertex="1">
          <mxGeometry x="356" y="705" width="60" height="40" as="geometry" />
        </mxCell>
        <mxCell id="ptOT3qZYD3eIL-_pdCU0-67" style="edgeStyle=orthogonalEdgeStyle;rounded=0;orthogonalLoop=1;jettySize=auto;html=1;exitX=0.512;exitY=0.975;exitDx=0;exitDy=0;exitPerimeter=0;" parent="1" source="ptOT3qZYD3eIL-_pdCU0-63" target="ptOT3qZYD3eIL-_pdCU0-69" edge="1">
          <mxGeometry relative="1" as="geometry">
            <mxPoint x="165" y="315" as="targetPoint" />
          </mxGeometry>
        </mxCell>
        <mxCell id="ptOT3qZYD3eIL-_pdCU0-63" value="文件" style="shape=document;whiteSpace=wrap;html=1;boundedLbl=1;" parent="1" vertex="1">
          <mxGeometry x="74" y="295" width="41" height="40" as="geometry" />
        </mxCell>
        <mxCell id="ptOT3qZYD3eIL-_pdCU0-94" style="edgeStyle=orthogonalEdgeStyle;rounded=0;orthogonalLoop=1;jettySize=auto;html=1;exitX=1;exitY=0.5;exitDx=0;exitDy=0;entryX=0;entryY=0.75;entryDx=0;entryDy=0;" parent="1" source="ptOT3qZYD3eIL-_pdCU0-63" target="ptOT3qZYD3eIL-_pdCU0-86" edge="1">
          <mxGeometry relative="1" as="geometry">
            <Array as="points" />
          </mxGeometry>
        </mxCell>
        <mxCell id="ptOT3qZYD3eIL-_pdCU0-102" style="edgeStyle=orthogonalEdgeStyle;rounded=0;orthogonalLoop=1;jettySize=auto;html=1;exitX=0;exitY=1;exitDx=0;exitDy=0;entryX=0;entryY=0.25;entryDx=0;entryDy=0;dashed=1;" parent="1" source="ptOT3qZYD3eIL-_pdCU0-64" target="ptOT3qZYD3eIL-_pdCU0-86" edge="1">
          <mxGeometry relative="1" as="geometry">
            <Array as="points">
              <mxPoint x="175" y="140" />
              <mxPoint x="175" y="295" />
            </Array>
          </mxGeometry>
        </mxCell>
        <mxCell id="ptOT3qZYD3eIL-_pdCU0-64" value="文件类型&lt;br&gt;分流" style="rhombus;whiteSpace=wrap;html=1;" parent="1" vertex="1">
          <mxGeometry x="195" y="110" width="80" height="40" as="geometry" />
        </mxCell>
        <mxCell id="ptOT3qZYD3eIL-_pdCU0-69" value="对象存储&lt;br&gt;Ceph" style="rounded=1;whiteSpace=wrap;html=1;fillColor=#d5e8d4;strokeColor=#82b366;" parent="1" vertex="1">
          <mxGeometry x="55" y="375" width="60" height="40" as="geometry" />
        </mxCell>
        <mxCell id="ptOT3qZYD3eIL-_pdCU0-79" style="edgeStyle=orthogonalEdgeStyle;rounded=0;orthogonalLoop=1;jettySize=auto;html=1;entryX=0.5;entryY=0;entryDx=0;entryDy=0;" parent="1" target="ptOT3qZYD3eIL-_pdCU0-63" edge="1">
          <mxGeometry relative="1" as="geometry">
            <mxPoint x="55" y="130" as="sourcePoint" />
            <Array as="points">
              <mxPoint x="55" y="130" />
              <mxPoint x="95" y="130" />
            </Array>
          </mxGeometry>
        </mxCell>
        <mxCell id="ptOT3qZYD3eIL-_pdCU0-80" style="edgeStyle=orthogonalEdgeStyle;rounded=0;orthogonalLoop=1;jettySize=auto;html=1;entryX=0;entryY=0.5;entryDx=0;entryDy=0;" parent="1" target="ptOT3qZYD3eIL-_pdCU0-64" edge="1">
          <mxGeometry relative="1" as="geometry">
            <mxPoint x="170" y="190" as="targetPoint" />
            <mxPoint x="50" y="133" as="sourcePoint" />
            <Array as="points">
              <mxPoint x="50" y="130" />
            </Array>
          </mxGeometry>
        </mxCell>
        <mxCell id="ptOT3qZYD3eIL-_pdCU0-81" value="query" style="edgeLabel;html=1;align=center;verticalAlign=middle;resizable=0;points=[];" parent="ptOT3qZYD3eIL-_pdCU0-80" vertex="1" connectable="0">
          <mxGeometry x="0.0897" y="-1" relative="1" as="geometry">
            <mxPoint x="21" y="-20" as="offset" />
          </mxGeometry>
        </mxCell>
        <mxCell id="ptOT3qZYD3eIL-_pdCU0-78" value="Actor" style="shape=umlActor;verticalLabelPosition=bottom;verticalAlign=top;html=1;outlineConnect=0;" parent="1" vertex="1">
          <mxGeometry x="20" y="110" width="20" height="40" as="geometry" />
        </mxCell>
        <mxCell id="ptOT3qZYD3eIL-_pdCU0-90" style="edgeStyle=orthogonalEdgeStyle;rounded=0;orthogonalLoop=1;jettySize=auto;html=1;exitX=0.5;exitY=1;exitDx=0;exitDy=0;" parent="1" source="ptOT3qZYD3eIL-_pdCU0-86" target="ptOT3qZYD3eIL-_pdCU0-88" edge="1">
          <mxGeometry relative="1" as="geometry" />
        </mxCell>
        <mxCell id="ptOT3qZYD3eIL-_pdCU0-91" style="edgeStyle=orthogonalEdgeStyle;rounded=0;orthogonalLoop=1;jettySize=auto;html=1;exitX=0.5;exitY=1;exitDx=0;exitDy=0;" parent="1" source="ptOT3qZYD3eIL-_pdCU0-86" target="ptOT3qZYD3eIL-_pdCU0-89" edge="1">
          <mxGeometry relative="1" as="geometry" />
        </mxCell>
        <mxCell id="ptOT3qZYD3eIL-_pdCU0-98" style="edgeStyle=orthogonalEdgeStyle;rounded=0;orthogonalLoop=1;jettySize=auto;html=1;exitX=0.5;exitY=1;exitDx=0;exitDy=0;" parent="1" source="ptOT3qZYD3eIL-_pdCU0-86" target="ptOT3qZYD3eIL-_pdCU0-92" edge="1">
          <mxGeometry relative="1" as="geometry" />
        </mxCell>
        <mxCell id="ptOT3qZYD3eIL-_pdCU0-86" value="文件预处理" style="rounded=1;whiteSpace=wrap;html=1;fillColor=#fff2cc;gradientColor=#ffd966;strokeColor=#d6b656;" parent="1" vertex="1">
          <mxGeometry x="195" y="285" width="80" height="40" as="geometry" />
        </mxCell>
        <mxCell id="ptOT3qZYD3eIL-_pdCU0-88" value="内容向量&lt;br&gt;Milvus" style="rounded=1;whiteSpace=wrap;html=1;fillColor=#d5e8d4;strokeColor=#82b366;" parent="1" vertex="1">
          <mxGeometry x="135" y="375" width="60" height="40" as="geometry" />
        </mxCell>
        <mxCell id="ptOT3qZYD3eIL-_pdCU0-89" value="内容全文索引&lt;br&gt;ES" style="rounded=1;whiteSpace=wrap;html=1;fillColor=#d5e8d4;strokeColor=#82b366;" parent="1" vertex="1">
          <mxGeometry x="215" y="375" width="60" height="40" as="geometry" />
        </mxCell>
        <mxCell id="ptOT3qZYD3eIL-_pdCU0-92" value="会话缓存&lt;br&gt;Redis" style="rounded=1;whiteSpace=wrap;html=1;fillColor=#d5e8d4;strokeColor=#82b366;" parent="1" vertex="1">
          <mxGeometry x="295" y="375" width="60" height="40" as="geometry" />
        </mxCell>
        <mxCell id="ptOT3qZYD3eIL-_pdCU0-99" value="文件预处理" style="text;html=1;strokeColor=none;fillColor=none;align=center;verticalAlign=middle;whiteSpace=wrap;rounded=0;fontStyle=1" parent="1" vertex="1">
          <mxGeometry x="30" y="480" width="80" height="30" as="geometry" />
        </mxCell>
        <mxCell id="ptOT3qZYD3eIL-_pdCU0-101" value="...." style="rounded=1;whiteSpace=wrap;html=1;fillColor=#f8cecc;strokeColor=#b85450;" parent="1" vertex="1">
          <mxGeometry x="685" y="75" width="60" height="40" as="geometry" />
        </mxCell>
        <mxCell id="ptOT3qZYD3eIL-_pdCU0-105" value="" style="endArrow=classic;html=1;rounded=0;exitX=0.517;exitY=0.775;exitDx=0;exitDy=0;exitPerimeter=0;" parent="1" source="ptOT3qZYD3eIL-_pdCU0-125" target="ptOT3qZYD3eIL-_pdCU0-11" edge="1">
          <mxGeometry width="50" height="50" relative="1" as="geometry">
            <mxPoint x="95.5" y="580" as="sourcePoint" />
            <mxPoint x="145.5" y="530" as="targetPoint" />
          </mxGeometry>
        </mxCell>
        <mxCell id="ptOT3qZYD3eIL-_pdCU0-127" value="纯文本信息" style="edgeLabel;html=1;align=center;verticalAlign=middle;resizable=0;points=[];" parent="ptOT3qZYD3eIL-_pdCU0-105" vertex="1" connectable="0">
          <mxGeometry x="-0.0737" y="-1" relative="1" as="geometry">
            <mxPoint as="offset" />
          </mxGeometry>
        </mxCell>
        <mxCell id="ptOT3qZYD3eIL-_pdCU0-106" value="文件" style="shape=document;whiteSpace=wrap;html=1;boundedLbl=1;size=0.625;" parent="1" vertex="1">
          <mxGeometry x="80" y="545" width="60" height="40" as="geometry" />
        </mxCell>
        <mxCell id="ptOT3qZYD3eIL-_pdCU0-107" value="&lt;span style=&quot;color: rgb(0, 0, 0); font-family: Helvetica; font-size: 11px; font-style: normal; font-variant-ligatures: normal; font-variant-caps: normal; font-weight: 400; letter-spacing: normal; orphans: 2; text-align: center; text-indent: 0px; text-transform: none; widows: 2; word-spacing: 0px; -webkit-text-stroke-width: 0px; background-color: rgb(255, 255, 255); text-decoration-thickness: initial; text-decoration-style: initial; text-decoration-color: initial; float: none; display: inline !important;&quot;&gt;文本文件：word、pdf、txt，md, ...&lt;/span&gt;" style="text;whiteSpace=wrap;html=1;" parent="1" vertex="1">
          <mxGeometry x="40" y="515" width="194.5" height="30" as="geometry" />
        </mxCell>
        <mxCell id="ptOT3qZYD3eIL-_pdCU0-115" style="edgeStyle=orthogonalEdgeStyle;rounded=0;orthogonalLoop=1;jettySize=auto;html=1;entryX=0.5;entryY=0;entryDx=0;entryDy=0;" parent="1" source="ptOT3qZYD3eIL-_pdCU0-112" target="ptOT3qZYD3eIL-_pdCU0-114" edge="1">
          <mxGeometry relative="1" as="geometry" />
        </mxCell>
        <mxCell id="ptOT3qZYD3eIL-_pdCU0-112" value="文件" style="shape=document;whiteSpace=wrap;html=1;boundedLbl=1;size=0.625;" parent="1" vertex="1">
          <mxGeometry x="356" y="545" width="60" height="40" as="geometry" />
        </mxCell>
        <mxCell id="ptOT3qZYD3eIL-_pdCU0-113" value="&lt;span style=&quot;color: rgb(0, 0, 0); font-family: Helvetica; font-size: 11px; font-style: normal; font-variant-ligatures: normal; font-variant-caps: normal; font-weight: 400; letter-spacing: normal; orphans: 2; text-align: center; text-indent: 0px; text-transform: none; widows: 2; word-spacing: 0px; -webkit-text-stroke-width: 0px; background-color: rgb(255, 255, 255); text-decoration-thickness: initial; text-decoration-style: initial; text-decoration-color: initial; float: none; display: inline !important;&quot;&gt;表格文件：excel,csv ...&lt;/span&gt;" style="text;whiteSpace=wrap;html=1;" parent="1" vertex="1">
          <mxGeometry x="316" y="515" width="194.5" height="30" as="geometry" />
        </mxCell>
        <mxCell id="ptOT3qZYD3eIL-_pdCU0-120" style="edgeStyle=orthogonalEdgeStyle;rounded=0;orthogonalLoop=1;jettySize=auto;html=1;exitX=0.5;exitY=1;exitDx=0;exitDy=0;entryX=0.5;entryY=0;entryDx=0;entryDy=0;" parent="1" source="ptOT3qZYD3eIL-_pdCU0-114" target="ptOT3qZYD3eIL-_pdCU0-58" edge="1">
          <mxGeometry relative="1" as="geometry" />
        </mxCell>
        <mxCell id="ptOT3qZYD3eIL-_pdCU0-121" value="是" style="edgeLabel;html=1;align=center;verticalAlign=middle;resizable=0;points=[];" parent="ptOT3qZYD3eIL-_pdCU0-120" vertex="1" connectable="0">
          <mxGeometry x="-0.4" y="2" relative="1" as="geometry">
            <mxPoint as="offset" />
          </mxGeometry>
        </mxCell>
        <mxCell id="ptOT3qZYD3eIL-_pdCU0-122" style="edgeStyle=orthogonalEdgeStyle;rounded=0;orthogonalLoop=1;jettySize=auto;html=1;exitX=0;exitY=0.5;exitDx=0;exitDy=0;entryX=0;entryY=0.5;entryDx=0;entryDy=0;" parent="1" source="ptOT3qZYD3eIL-_pdCU0-114" target="ptOT3qZYD3eIL-_pdCU0-117" edge="1">
          <mxGeometry relative="1" as="geometry" />
        </mxCell>
        <mxCell id="ptOT3qZYD3eIL-_pdCU0-123" value="否" style="edgeLabel;html=1;align=center;verticalAlign=middle;resizable=0;points=[];" parent="ptOT3qZYD3eIL-_pdCU0-122" vertex="1" connectable="0">
          <mxGeometry x="-0.1524" y="-2" relative="1" as="geometry">
            <mxPoint as="offset" />
          </mxGeometry>
        </mxCell>
        <mxCell id="ptOT3qZYD3eIL-_pdCU0-114" value="需要转换？" style="rhombus;whiteSpace=wrap;html=1;" parent="1" vertex="1">
          <mxGeometry x="346" y="625" width="80" height="40" as="geometry" />
        </mxCell>
        <mxCell id="ptOT3qZYD3eIL-_pdCU0-117" value="存ES" style="rounded=1;whiteSpace=wrap;html=1;fillColor=#d5e8d4;strokeColor=#82b366;" parent="1" vertex="1">
          <mxGeometry x="356" y="785" width="60" height="40" as="geometry" />
        </mxCell>
        <mxCell id="ptOT3qZYD3eIL-_pdCU0-126" value="" style="endArrow=classic;html=1;rounded=0;exitX=0.517;exitY=0.775;exitDx=0;exitDy=0;exitPerimeter=0;" parent="1" source="ptOT3qZYD3eIL-_pdCU0-106" target="ptOT3qZYD3eIL-_pdCU0-125" edge="1">
          <mxGeometry width="50" height="50" relative="1" as="geometry">
            <mxPoint x="111" y="576" as="sourcePoint" />
            <mxPoint x="110" y="705" as="targetPoint" />
          </mxGeometry>
        </mxCell>
        <mxCell id="ptOT3qZYD3eIL-_pdCU0-125" value="文档转换" style="rounded=1;whiteSpace=wrap;html=1;fillColor=#fff2cc;gradientColor=#ffd966;strokeColor=#d6b656;" parent="1" vertex="1">
          <mxGeometry x="80" y="620" width="60" height="40" as="geometry" />
        </mxCell>
        <mxCell id="ptOT3qZYD3eIL-_pdCU0-130" style="edgeStyle=orthogonalEdgeStyle;rounded=0;orthogonalLoop=1;jettySize=auto;html=1;exitX=0.5;exitY=1;exitDx=0;exitDy=0;entryX=0.5;entryY=0;entryDx=0;entryDy=0;" parent="1" source="ptOT3qZYD3eIL-_pdCU0-128" target="ptOT3qZYD3eIL-_pdCU0-44" edge="1">
          <mxGeometry relative="1" as="geometry" />
        </mxCell>
        <mxCell id="ptOT3qZYD3eIL-_pdCU0-131" style="rounded=0;orthogonalLoop=1;jettySize=auto;html=1;exitX=1;exitY=1;exitDx=0;exitDy=0;entryX=0.25;entryY=0;entryDx=0;entryDy=0;" parent="1" source="ptOT3qZYD3eIL-_pdCU0-128" target="ptOT3qZYD3eIL-_pdCU0-45" edge="1">
          <mxGeometry relative="1" as="geometry" />
        </mxCell>
        <mxCell id="ptOT3qZYD3eIL-_pdCU0-132" style="rounded=0;orthogonalLoop=1;jettySize=auto;html=1;exitX=1;exitY=1;exitDx=0;exitDy=0;" parent="1" source="ptOT3qZYD3eIL-_pdCU0-128" edge="1">
          <mxGeometry relative="1" as="geometry">
            <mxPoint x="520" y="70" as="targetPoint" />
          </mxGeometry>
        </mxCell>
        <mxCell id="ptOT3qZYD3eIL-_pdCU0-133" style="rounded=0;orthogonalLoop=1;jettySize=auto;html=1;exitX=1;exitY=0.5;exitDx=0;exitDy=0;entryX=0.633;entryY=0.025;entryDx=0;entryDy=0;entryPerimeter=0;" parent="1" source="ptOT3qZYD3eIL-_pdCU0-128" target="ptOT3qZYD3eIL-_pdCU0-47" edge="1">
          <mxGeometry relative="1" as="geometry" />
        </mxCell>
        <mxCell id="ptOT3qZYD3eIL-_pdCU0-134" style="rounded=0;orthogonalLoop=1;jettySize=auto;html=1;exitX=1;exitY=0.5;exitDx=0;exitDy=0;entryX=0.5;entryY=0;entryDx=0;entryDy=0;" parent="1" source="ptOT3qZYD3eIL-_pdCU0-128" target="ptOT3qZYD3eIL-_pdCU0-48" edge="1">
          <mxGeometry relative="1" as="geometry" />
        </mxCell>
        <mxCell id="ptOT3qZYD3eIL-_pdCU0-135" style="rounded=0;orthogonalLoop=1;jettySize=auto;html=1;exitX=1;exitY=0.5;exitDx=0;exitDy=0;entryX=0.5;entryY=0;entryDx=0;entryDy=0;" parent="1" source="ptOT3qZYD3eIL-_pdCU0-128" target="ptOT3qZYD3eIL-_pdCU0-101" edge="1">
          <mxGeometry relative="1" as="geometry" />
        </mxCell>
        <mxCell id="ptOT3qZYD3eIL-_pdCU0-128" value="模型分流" style="rhombus;whiteSpace=wrap;html=1;" parent="1" vertex="1">
          <mxGeometry x="375" y="10" width="80" height="40" as="geometry" />
        </mxCell>
        <mxCell id="aNbf_Czc5NgYehAW_Bbs-1" style="rounded=0;orthogonalLoop=1;jettySize=auto;html=1;entryX=0;entryY=0.5;entryDx=0;entryDy=0;" edge="1" parent="1" target="aNbf_Czc5NgYehAW_Bbs-43">
          <mxGeometry relative="1" as="geometry">
            <mxPoint x="258.5" y="1340" as="sourcePoint" />
            <mxPoint x="608.5" y="1545" as="targetPoint" />
          </mxGeometry>
        </mxCell>
        <mxCell id="aNbf_Czc5NgYehAW_Bbs-2" value="文本文件&lt;br&gt;（word、pdf、txt，md）" style="edgeLabel;html=1;align=center;verticalAlign=middle;resizable=0;points=[];" vertex="1" connectable="0" parent="aNbf_Czc5NgYehAW_Bbs-1">
          <mxGeometry x="-0.528" relative="1" as="geometry">
            <mxPoint x="42" y="-29" as="offset" />
          </mxGeometry>
        </mxCell>
        <mxCell id="aNbf_Czc5NgYehAW_Bbs-3" style="rounded=0;orthogonalLoop=1;jettySize=auto;html=1;exitX=1;exitY=0.5;exitDx=0;exitDy=0;entryX=0;entryY=0.5;entryDx=0;entryDy=0;" edge="1" parent="1" source="aNbf_Czc5NgYehAW_Bbs-23" target="aNbf_Czc5NgYehAW_Bbs-10">
          <mxGeometry relative="1" as="geometry">
            <mxPoint x="698.5" y="1445" as="sourcePoint" />
          </mxGeometry>
        </mxCell>
        <mxCell id="aNbf_Czc5NgYehAW_Bbs-4" value="表格&lt;br&gt;（excel，csv）" style="edgeLabel;html=1;align=center;verticalAlign=middle;resizable=0;points=[];" vertex="1" connectable="0" parent="aNbf_Czc5NgYehAW_Bbs-3">
          <mxGeometry x="-0.1452" y="-1" relative="1" as="geometry">
            <mxPoint x="-11" y="6" as="offset" />
          </mxGeometry>
        </mxCell>
        <mxCell id="aNbf_Czc5NgYehAW_Bbs-5" style="rounded=0;orthogonalLoop=1;jettySize=auto;html=1;entryX=0;entryY=0.5;entryDx=0;entryDy=0;" edge="1" parent="1" source="aNbf_Czc5NgYehAW_Bbs-23" target="aNbf_Czc5NgYehAW_Bbs-17">
          <mxGeometry relative="1" as="geometry">
            <mxPoint x="718.5" y="1435" as="sourcePoint" />
          </mxGeometry>
        </mxCell>
        <mxCell id="aNbf_Czc5NgYehAW_Bbs-6" value="图片&lt;br&gt;（jpg、png等）" style="edgeLabel;html=1;align=center;verticalAlign=middle;resizable=0;points=[];" vertex="1" connectable="0" parent="aNbf_Czc5NgYehAW_Bbs-5">
          <mxGeometry x="0.125" y="-3" relative="1" as="geometry">
            <mxPoint x="-14" y="2" as="offset" />
          </mxGeometry>
        </mxCell>
        <mxCell id="aNbf_Czc5NgYehAW_Bbs-7" style="rounded=0;orthogonalLoop=1;jettySize=auto;html=1;exitX=0.5;exitY=0;exitDx=0;exitDy=0;entryX=0.25;entryY=1;entryDx=0;entryDy=0;" edge="1" parent="1" source="aNbf_Czc5NgYehAW_Bbs-23" target="aNbf_Czc5NgYehAW_Bbs-11">
          <mxGeometry relative="1" as="geometry">
            <mxPoint x="658.5" y="1425" as="sourcePoint" />
          </mxGeometry>
        </mxCell>
        <mxCell id="aNbf_Czc5NgYehAW_Bbs-8" value="文本" style="edgeLabel;html=1;align=center;verticalAlign=middle;resizable=0;points=[];" vertex="1" connectable="0" parent="aNbf_Czc5NgYehAW_Bbs-7">
          <mxGeometry x="-0.045" relative="1" as="geometry">
            <mxPoint as="offset" />
          </mxGeometry>
        </mxCell>
        <mxCell id="aNbf_Czc5NgYehAW_Bbs-9" value="多媒体文件" style="rounded=0;orthogonalLoop=1;jettySize=auto;html=1;exitX=0.5;exitY=1;exitDx=0;exitDy=0;entryX=0;entryY=0.5;entryDx=0;entryDy=0;" edge="1" parent="1" source="aNbf_Czc5NgYehAW_Bbs-23">
          <mxGeometry relative="1" as="geometry">
            <mxPoint x="698.5" y="1425" as="sourcePoint" />
            <mxPoint x="388.5" y="1515" as="targetPoint" />
          </mxGeometry>
        </mxCell>
        <mxCell id="aNbf_Czc5NgYehAW_Bbs-10" value="表格问答&lt;br&gt;（统计、生成图）" style="rounded=1;whiteSpace=wrap;html=1;fillColor=#fff2cc;gradientColor=#ffd966;strokeColor=#d6b656;" vertex="1" parent="1">
          <mxGeometry x="388.5" y="1365" width="80" height="40" as="geometry" />
        </mxCell>
        <mxCell id="aNbf_Czc5NgYehAW_Bbs-11" value="文本问答" style="rounded=1;whiteSpace=wrap;html=1;fillColor=#fff2cc;gradientColor=#ffd966;strokeColor=#d6b656;" vertex="1" parent="1">
          <mxGeometry x="238.5" y="1230" width="60" height="40" as="geometry" />
        </mxCell>
        <mxCell id="aNbf_Czc5NgYehAW_Bbs-12" value="文档问答" style="rounded=1;whiteSpace=wrap;html=1;fillColor=#fff2cc;gradientColor=#ffd966;strokeColor=#d6b656;" vertex="1" parent="1">
          <mxGeometry x="388.5" y="1295" width="60" height="40" as="geometry" />
        </mxCell>
        <mxCell id="aNbf_Czc5NgYehAW_Bbs-13" value="文本摘要" style="rounded=1;whiteSpace=wrap;html=1;fillColor=#fff2cc;gradientColor=#ffd966;strokeColor=#d6b656;" vertex="1" parent="1">
          <mxGeometry x="448.5" y="1295" width="60" height="40" as="geometry" />
        </mxCell>
        <mxCell id="aNbf_Czc5NgYehAW_Bbs-14" value="实体抽取" style="rounded=1;whiteSpace=wrap;html=1;fillColor=#f8cecc;strokeColor=#b85450;" vertex="1" parent="1">
          <mxGeometry x="568.5" y="1295" width="60" height="40" as="geometry" />
        </mxCell>
        <mxCell id="aNbf_Czc5NgYehAW_Bbs-15" value="图谱生成" style="rounded=1;whiteSpace=wrap;html=1;fillColor=#f8cecc;strokeColor=#b85450;" vertex="1" parent="1">
          <mxGeometry x="628.5" y="1295" width="60" height="40" as="geometry" />
        </mxCell>
        <mxCell id="aNbf_Czc5NgYehAW_Bbs-16" value="翻译" style="rounded=1;whiteSpace=wrap;html=1;fillColor=#fff2cc;gradientColor=#ffd966;strokeColor=#d6b656;" vertex="1" parent="1">
          <mxGeometry x="508.5" y="1295" width="60" height="40" as="geometry" />
        </mxCell>
        <mxCell id="aNbf_Czc5NgYehAW_Bbs-17" value="图片识别问答" style="rounded=1;whiteSpace=wrap;html=1;fillColor=#f8cecc;strokeColor=#b85450;" vertex="1" parent="1">
          <mxGeometry x="388.5" y="1425" width="80" height="40" as="geometry" />
        </mxCell>
        <mxCell id="aNbf_Czc5NgYehAW_Bbs-18" value="多媒体识别问答" style="rounded=1;whiteSpace=wrap;html=1;fillColor=#f8cecc;strokeColor=#b85450;" vertex="1" parent="1">
          <mxGeometry x="343.5" y="1490" width="80" height="40" as="geometry" />
        </mxCell>
        <mxCell id="aNbf_Czc5NgYehAW_Bbs-19" style="edgeStyle=orthogonalEdgeStyle;rounded=0;orthogonalLoop=1;jettySize=auto;html=1;exitX=0.512;exitY=0.975;exitDx=0;exitDy=0;exitPerimeter=0;" edge="1" parent="1" source="aNbf_Czc5NgYehAW_Bbs-20" target="aNbf_Czc5NgYehAW_Bbs-24">
          <mxGeometry relative="1" as="geometry">
            <mxPoint x="168.5" y="1535" as="targetPoint" />
          </mxGeometry>
        </mxCell>
        <mxCell id="aNbf_Czc5NgYehAW_Bbs-20" value="文件" style="shape=document;whiteSpace=wrap;html=1;boundedLbl=1;" vertex="1" parent="1">
          <mxGeometry x="77.5" y="1515" width="41" height="40" as="geometry" />
        </mxCell>
        <mxCell id="aNbf_Czc5NgYehAW_Bbs-21" style="edgeStyle=orthogonalEdgeStyle;rounded=0;orthogonalLoop=1;jettySize=auto;html=1;exitX=1;exitY=0.5;exitDx=0;exitDy=0;entryX=0;entryY=0.75;entryDx=0;entryDy=0;" edge="1" parent="1" source="aNbf_Czc5NgYehAW_Bbs-20" target="aNbf_Czc5NgYehAW_Bbs-32">
          <mxGeometry relative="1" as="geometry">
            <Array as="points" />
          </mxGeometry>
        </mxCell>
        <mxCell id="aNbf_Czc5NgYehAW_Bbs-22" style="edgeStyle=orthogonalEdgeStyle;rounded=0;orthogonalLoop=1;jettySize=auto;html=1;exitX=0;exitY=1;exitDx=0;exitDy=0;entryX=0;entryY=0.25;entryDx=0;entryDy=0;dashed=1;" edge="1" parent="1" source="aNbf_Czc5NgYehAW_Bbs-23" target="aNbf_Czc5NgYehAW_Bbs-32">
          <mxGeometry relative="1" as="geometry">
            <Array as="points">
              <mxPoint x="178.5" y="1360" />
              <mxPoint x="178.5" y="1515" />
            </Array>
          </mxGeometry>
        </mxCell>
        <mxCell id="aNbf_Czc5NgYehAW_Bbs-23" value="文件类型&lt;br&gt;分流" style="rhombus;whiteSpace=wrap;html=1;" vertex="1" parent="1">
          <mxGeometry x="198.5" y="1330" width="80" height="40" as="geometry" />
        </mxCell>
        <mxCell id="aNbf_Czc5NgYehAW_Bbs-24" value="对象存储&lt;br&gt;Ceph" style="rounded=1;whiteSpace=wrap;html=1;fillColor=#d5e8d4;strokeColor=#82b366;" vertex="1" parent="1">
          <mxGeometry x="58.5" y="1595" width="60" height="40" as="geometry" />
        </mxCell>
        <mxCell id="aNbf_Czc5NgYehAW_Bbs-25" style="edgeStyle=orthogonalEdgeStyle;rounded=0;orthogonalLoop=1;jettySize=auto;html=1;entryX=0.5;entryY=0;entryDx=0;entryDy=0;" edge="1" parent="1" target="aNbf_Czc5NgYehAW_Bbs-20">
          <mxGeometry relative="1" as="geometry">
            <mxPoint x="58.5" y="1350" as="sourcePoint" />
            <Array as="points">
              <mxPoint x="58.5" y="1350" />
              <mxPoint x="98.5" y="1350" />
            </Array>
          </mxGeometry>
        </mxCell>
        <mxCell id="aNbf_Czc5NgYehAW_Bbs-26" style="edgeStyle=orthogonalEdgeStyle;rounded=0;orthogonalLoop=1;jettySize=auto;html=1;entryX=0;entryY=0.5;entryDx=0;entryDy=0;" edge="1" parent="1" target="aNbf_Czc5NgYehAW_Bbs-23">
          <mxGeometry relative="1" as="geometry">
            <mxPoint x="173.5" y="1410" as="targetPoint" />
            <mxPoint x="53.5" y="1353" as="sourcePoint" />
            <Array as="points">
              <mxPoint x="53.5" y="1350" />
            </Array>
          </mxGeometry>
        </mxCell>
        <mxCell id="aNbf_Czc5NgYehAW_Bbs-27" value="query" style="edgeLabel;html=1;align=center;verticalAlign=middle;resizable=0;points=[];" vertex="1" connectable="0" parent="aNbf_Czc5NgYehAW_Bbs-26">
          <mxGeometry x="0.0897" y="-1" relative="1" as="geometry">
            <mxPoint x="21" y="-20" as="offset" />
          </mxGeometry>
        </mxCell>
        <mxCell id="aNbf_Czc5NgYehAW_Bbs-28" value="Actor" style="shape=umlActor;verticalLabelPosition=bottom;verticalAlign=top;html=1;outlineConnect=0;" vertex="1" parent="1">
          <mxGeometry x="23.5" y="1330" width="20" height="40" as="geometry" />
        </mxCell>
        <mxCell id="aNbf_Czc5NgYehAW_Bbs-29" style="edgeStyle=orthogonalEdgeStyle;rounded=0;orthogonalLoop=1;jettySize=auto;html=1;exitX=0.5;exitY=1;exitDx=0;exitDy=0;" edge="1" parent="1" source="aNbf_Czc5NgYehAW_Bbs-32" target="aNbf_Czc5NgYehAW_Bbs-33">
          <mxGeometry relative="1" as="geometry" />
        </mxCell>
        <mxCell id="aNbf_Czc5NgYehAW_Bbs-30" style="edgeStyle=orthogonalEdgeStyle;rounded=0;orthogonalLoop=1;jettySize=auto;html=1;exitX=0.5;exitY=1;exitDx=0;exitDy=0;" edge="1" parent="1" source="aNbf_Czc5NgYehAW_Bbs-32" target="aNbf_Czc5NgYehAW_Bbs-34">
          <mxGeometry relative="1" as="geometry" />
        </mxCell>
        <mxCell id="aNbf_Czc5NgYehAW_Bbs-31" style="edgeStyle=orthogonalEdgeStyle;rounded=0;orthogonalLoop=1;jettySize=auto;html=1;exitX=0.5;exitY=1;exitDx=0;exitDy=0;" edge="1" parent="1" source="aNbf_Czc5NgYehAW_Bbs-32" target="aNbf_Czc5NgYehAW_Bbs-35">
          <mxGeometry relative="1" as="geometry" />
        </mxCell>
        <mxCell id="aNbf_Czc5NgYehAW_Bbs-32" value="文件预处理" style="rounded=1;whiteSpace=wrap;html=1;fillColor=#fff2cc;gradientColor=#ffd966;strokeColor=#d6b656;" vertex="1" parent="1">
          <mxGeometry x="198.5" y="1505" width="80" height="40" as="geometry" />
        </mxCell>
        <mxCell id="aNbf_Czc5NgYehAW_Bbs-33" value="内容向量&lt;br&gt;Milvus" style="rounded=1;whiteSpace=wrap;html=1;fillColor=#d5e8d4;strokeColor=#82b366;" vertex="1" parent="1">
          <mxGeometry x="138.5" y="1595" width="60" height="40" as="geometry" />
        </mxCell>
        <mxCell id="aNbf_Czc5NgYehAW_Bbs-34" value="内容全文索引&lt;br&gt;ES" style="rounded=1;whiteSpace=wrap;html=1;fillColor=#d5e8d4;strokeColor=#82b366;" vertex="1" parent="1">
          <mxGeometry x="218.5" y="1595" width="60" height="40" as="geometry" />
        </mxCell>
        <mxCell id="aNbf_Czc5NgYehAW_Bbs-35" value="会话缓存&lt;br&gt;Redis" style="rounded=1;whiteSpace=wrap;html=1;fillColor=#d5e8d4;strokeColor=#82b366;" vertex="1" parent="1">
          <mxGeometry x="298.5" y="1595" width="60" height="40" as="geometry" />
        </mxCell>
        <mxCell id="aNbf_Czc5NgYehAW_Bbs-36" value="...." style="rounded=1;whiteSpace=wrap;html=1;fillColor=#f8cecc;strokeColor=#b85450;" vertex="1" parent="1">
          <mxGeometry x="688.5" y="1295" width="60" height="40" as="geometry" />
        </mxCell>
        <mxCell id="aNbf_Czc5NgYehAW_Bbs-37" style="edgeStyle=orthogonalEdgeStyle;rounded=0;orthogonalLoop=1;jettySize=auto;html=1;exitX=0.5;exitY=1;exitDx=0;exitDy=0;entryX=0.5;entryY=0;entryDx=0;entryDy=0;" edge="1" parent="1" source="aNbf_Czc5NgYehAW_Bbs-43" target="aNbf_Czc5NgYehAW_Bbs-12">
          <mxGeometry relative="1" as="geometry" />
        </mxCell>
        <mxCell id="aNbf_Czc5NgYehAW_Bbs-38" style="rounded=0;orthogonalLoop=1;jettySize=auto;html=1;exitX=1;exitY=1;exitDx=0;exitDy=0;entryX=0.25;entryY=0;entryDx=0;entryDy=0;" edge="1" parent="1" source="aNbf_Czc5NgYehAW_Bbs-43" target="aNbf_Czc5NgYehAW_Bbs-13">
          <mxGeometry relative="1" as="geometry" />
        </mxCell>
        <mxCell id="aNbf_Czc5NgYehAW_Bbs-39" style="rounded=0;orthogonalLoop=1;jettySize=auto;html=1;exitX=1;exitY=1;exitDx=0;exitDy=0;" edge="1" parent="1" source="aNbf_Czc5NgYehAW_Bbs-43">
          <mxGeometry relative="1" as="geometry">
            <mxPoint x="523.5" y="1290" as="targetPoint" />
          </mxGeometry>
        </mxCell>
        <mxCell id="aNbf_Czc5NgYehAW_Bbs-40" style="rounded=0;orthogonalLoop=1;jettySize=auto;html=1;exitX=1;exitY=0.5;exitDx=0;exitDy=0;entryX=0.633;entryY=0.025;entryDx=0;entryDy=0;entryPerimeter=0;" edge="1" parent="1" source="aNbf_Czc5NgYehAW_Bbs-43" target="aNbf_Czc5NgYehAW_Bbs-14">
          <mxGeometry relative="1" as="geometry" />
        </mxCell>
        <mxCell id="aNbf_Czc5NgYehAW_Bbs-41" style="rounded=0;orthogonalLoop=1;jettySize=auto;html=1;exitX=1;exitY=0.5;exitDx=0;exitDy=0;entryX=0.5;entryY=0;entryDx=0;entryDy=0;" edge="1" parent="1" source="aNbf_Czc5NgYehAW_Bbs-43" target="aNbf_Czc5NgYehAW_Bbs-15">
          <mxGeometry relative="1" as="geometry" />
        </mxCell>
        <mxCell id="aNbf_Czc5NgYehAW_Bbs-42" style="rounded=0;orthogonalLoop=1;jettySize=auto;html=1;exitX=1;exitY=0.5;exitDx=0;exitDy=0;entryX=0.5;entryY=0;entryDx=0;entryDy=0;" edge="1" parent="1" source="aNbf_Czc5NgYehAW_Bbs-43" target="aNbf_Czc5NgYehAW_Bbs-36">
          <mxGeometry relative="1" as="geometry" />
        </mxCell>
        <mxCell id="aNbf_Czc5NgYehAW_Bbs-43" value="模型分流" style="rhombus;whiteSpace=wrap;html=1;" vertex="1" parent="1">
          <mxGeometry x="378.5" y="1230" width="80" height="40" as="geometry" />
        </mxCell>
        <mxCell id="aNbf_Czc5NgYehAW_Bbs-50" style="edgeStyle=orthogonalEdgeStyle;rounded=0;orthogonalLoop=1;jettySize=auto;html=1;entryX=0;entryY=0.25;entryDx=0;entryDy=0;" edge="1" parent="1" target="aNbf_Czc5NgYehAW_Bbs-49">
          <mxGeometry relative="1" as="geometry">
            <mxPoint x="80" y="1810" as="sourcePoint" />
          </mxGeometry>
        </mxCell>
        <mxCell id="aNbf_Czc5NgYehAW_Bbs-46" value="" style="endArrow=none;dashed=1;html=1;rounded=0;" edge="1" parent="1">
          <mxGeometry width="50" height="50" relative="1" as="geometry">
            <mxPoint x="159.5" y="2330" as="sourcePoint" />
            <mxPoint x="159.5" y="1760" as="targetPoint" />
          </mxGeometry>
        </mxCell>
        <mxCell id="aNbf_Czc5NgYehAW_Bbs-47" value="Ceph" style="text;html=1;strokeColor=none;fillColor=none;align=center;verticalAlign=middle;whiteSpace=wrap;rounded=0;" vertex="1" parent="1">
          <mxGeometry x="178" y="1730" width="60" height="30" as="geometry" />
        </mxCell>
        <mxCell id="aNbf_Czc5NgYehAW_Bbs-48" value="" style="endArrow=none;dashed=1;html=1;rounded=0;" edge="1" parent="1">
          <mxGeometry width="50" height="50" relative="1" as="geometry">
            <mxPoint x="279.5" y="2320" as="sourcePoint" />
            <mxPoint x="279.5" y="1760" as="targetPoint" />
          </mxGeometry>
        </mxCell>
        <mxCell id="aNbf_Czc5NgYehAW_Bbs-51" style="edgeStyle=orthogonalEdgeStyle;rounded=0;orthogonalLoop=1;jettySize=auto;html=1;exitX=0;exitY=0.75;exitDx=0;exitDy=0;" edge="1" parent="1" source="aNbf_Czc5NgYehAW_Bbs-49">
          <mxGeometry relative="1" as="geometry">
            <mxPoint x="80" y="1830" as="targetPoint" />
          </mxGeometry>
        </mxCell>
        <mxCell id="aNbf_Czc5NgYehAW_Bbs-54" value="url&lt;br&gt;fid" style="edgeLabel;html=1;align=center;verticalAlign=middle;resizable=0;points=[];" vertex="1" connectable="0" parent="aNbf_Czc5NgYehAW_Bbs-51">
          <mxGeometry x="0.1891" relative="1" as="geometry">
            <mxPoint x="-1" y="20" as="offset" />
          </mxGeometry>
        </mxCell>
        <mxCell id="aNbf_Czc5NgYehAW_Bbs-49" value="文件上传Ceph，保存" style="rounded=1;whiteSpace=wrap;html=1;fillColor=#d5e8d4;strokeColor=#82b366;" vertex="1" parent="1">
          <mxGeometry x="179.5" y="1800" width="80" height="40" as="geometry" />
        </mxCell>
        <mxCell id="aNbf_Czc5NgYehAW_Bbs-52" value="文件" style="shape=document;whiteSpace=wrap;html=1;boundedLbl=1;" vertex="1" parent="1">
          <mxGeometry x="104" y="1760" width="41" height="40" as="geometry" />
        </mxCell>
        <mxCell id="aNbf_Czc5NgYehAW_Bbs-53" value="Actor" style="shape=umlActor;verticalLabelPosition=bottom;verticalAlign=top;html=1;outlineConnect=0;" vertex="1" parent="1">
          <mxGeometry x="43.5" y="1800" width="20" height="40" as="geometry" />
        </mxCell>
        <mxCell id="aNbf_Czc5NgYehAW_Bbs-55" value="" style="endArrow=none;dashed=1;html=1;rounded=0;" edge="1" parent="1">
          <mxGeometry width="50" height="50" relative="1" as="geometry">
            <mxPoint x="400" y="2320" as="sourcePoint" />
            <mxPoint x="400" y="1760" as="targetPoint" />
          </mxGeometry>
        </mxCell>
        <mxCell id="aNbf_Czc5NgYehAW_Bbs-56" value="" style="endArrow=classic;html=1;rounded=0;entryX=0;entryY=0.5;entryDx=0;entryDy=0;" edge="1" parent="1">
          <mxGeometry width="50" height="50" relative="1" as="geometry">
            <mxPoint x="80" y="1970" as="sourcePoint" />
            <mxPoint x="298.5" y="1970" as="targetPoint" />
          </mxGeometry>
        </mxCell>
        <mxCell id="aNbf_Czc5NgYehAW_Bbs-59" value="Query&lt;br&gt;url&lt;br&gt;fid&lt;br&gt;filename&lt;br&gt;type" style="edgeLabel;html=1;align=center;verticalAlign=middle;resizable=0;points=[];" vertex="1" connectable="0" parent="aNbf_Czc5NgYehAW_Bbs-56">
          <mxGeometry x="-0.6705" y="-1" relative="1" as="geometry">
            <mxPoint x="-1" y="-21" as="offset" />
          </mxGeometry>
        </mxCell>
        <mxCell id="aNbf_Czc5NgYehAW_Bbs-62" style="edgeStyle=orthogonalEdgeStyle;rounded=0;orthogonalLoop=1;jettySize=auto;html=1;exitX=0.5;exitY=1;exitDx=0;exitDy=0;entryX=0.5;entryY=0;entryDx=0;entryDy=0;" edge="1" parent="1" source="aNbf_Czc5NgYehAW_Bbs-58" target="aNbf_Czc5NgYehAW_Bbs-61">
          <mxGeometry relative="1" as="geometry" />
        </mxCell>
        <mxCell id="aNbf_Czc5NgYehAW_Bbs-71" style="edgeStyle=orthogonalEdgeStyle;rounded=0;orthogonalLoop=1;jettySize=auto;html=1;" edge="1" parent="1">
          <mxGeometry relative="1" as="geometry">
            <mxPoint x="80" y="1990" as="targetPoint" />
            <mxPoint x="290" y="1990" as="sourcePoint" />
          </mxGeometry>
        </mxCell>
        <mxCell id="aNbf_Czc5NgYehAW_Bbs-72" value="md格式回复" style="edgeLabel;html=1;align=center;verticalAlign=middle;resizable=0;points=[];" vertex="1" connectable="0" parent="aNbf_Czc5NgYehAW_Bbs-71">
          <mxGeometry x="0.027" y="-1" relative="1" as="geometry">
            <mxPoint as="offset" />
          </mxGeometry>
        </mxCell>
        <mxCell id="aNbf_Czc5NgYehAW_Bbs-58" value="大模型&lt;br&gt;接口&lt;br&gt;&lt;br&gt;&lt;br&gt;" style="rounded=1;whiteSpace=wrap;html=1;fillColor=#fff2cc;strokeColor=#d6b656;" vertex="1" parent="1">
          <mxGeometry x="298.5" y="1850" width="81.5" height="150" as="geometry" />
        </mxCell>
        <mxCell id="aNbf_Czc5NgYehAW_Bbs-60" value="大模型&lt;br&gt;接口&lt;br&gt;(赵杨)" style="text;html=1;strokeColor=none;fillColor=none;align=center;verticalAlign=middle;whiteSpace=wrap;rounded=0;" vertex="1" parent="1">
          <mxGeometry x="318.5" y="1730" width="60" height="30" as="geometry" />
        </mxCell>
        <mxCell id="aNbf_Czc5NgYehAW_Bbs-68" style="edgeStyle=orthogonalEdgeStyle;rounded=0;orthogonalLoop=1;jettySize=auto;html=1;exitX=1;exitY=0.5;exitDx=0;exitDy=0;entryX=0;entryY=0.5;entryDx=0;entryDy=0;" edge="1" parent="1" source="aNbf_Czc5NgYehAW_Bbs-61" target="aNbf_Czc5NgYehAW_Bbs-67">
          <mxGeometry relative="1" as="geometry" />
        </mxCell>
        <mxCell id="aNbf_Czc5NgYehAW_Bbs-69" value="文档问答&lt;br&gt;文档QA抽取" style="edgeLabel;html=1;align=center;verticalAlign=middle;resizable=0;points=[];" vertex="1" connectable="0" parent="aNbf_Czc5NgYehAW_Bbs-68">
          <mxGeometry x="-0.4959" y="-4" relative="1" as="geometry">
            <mxPoint x="6" y="-24" as="offset" />
          </mxGeometry>
        </mxCell>
        <mxCell id="aNbf_Czc5NgYehAW_Bbs-77" style="edgeStyle=orthogonalEdgeStyle;rounded=0;orthogonalLoop=1;jettySize=auto;html=1;exitX=0.5;exitY=1;exitDx=0;exitDy=0;entryX=0;entryY=0.5;entryDx=0;entryDy=0;" edge="1" parent="1" source="aNbf_Czc5NgYehAW_Bbs-61" target="aNbf_Czc5NgYehAW_Bbs-76">
          <mxGeometry relative="1" as="geometry" />
        </mxCell>
        <mxCell id="aNbf_Czc5NgYehAW_Bbs-98" value="其他" style="edgeLabel;html=1;align=center;verticalAlign=middle;resizable=0;points=[];" vertex="1" connectable="0" parent="aNbf_Czc5NgYehAW_Bbs-77">
          <mxGeometry x="-0.3424" y="2" relative="1" as="geometry">
            <mxPoint as="offset" />
          </mxGeometry>
        </mxCell>
        <mxCell id="aNbf_Czc5NgYehAW_Bbs-86" style="edgeStyle=orthogonalEdgeStyle;rounded=0;orthogonalLoop=1;jettySize=auto;html=1;exitX=1;exitY=1;exitDx=0;exitDy=0;" edge="1" parent="1">
          <mxGeometry relative="1" as="geometry">
            <mxPoint x="358.5" y="2060" as="sourcePoint" />
            <mxPoint x="650" y="2130" as="targetPoint" />
            <Array as="points">
              <mxPoint x="359" y="2130" />
              <mxPoint x="529" y="2130" />
              <mxPoint x="529" y="2129" />
              <mxPoint x="650" y="2129" />
            </Array>
          </mxGeometry>
        </mxCell>
        <mxCell id="aNbf_Czc5NgYehAW_Bbs-87" value="文档创作&lt;br&gt;AI写代码" style="edgeLabel;html=1;align=center;verticalAlign=middle;resizable=0;points=[];" vertex="1" connectable="0" parent="aNbf_Czc5NgYehAW_Bbs-86">
          <mxGeometry x="0.014" y="1" relative="1" as="geometry">
            <mxPoint as="offset" />
          </mxGeometry>
        </mxCell>
        <mxCell id="aNbf_Czc5NgYehAW_Bbs-90" value="一阶段" style="edgeLabel;html=1;align=center;verticalAlign=middle;resizable=0;points=[];" vertex="1" connectable="0" parent="aNbf_Czc5NgYehAW_Bbs-86">
          <mxGeometry x="0.3307" relative="1" as="geometry">
            <mxPoint x="-121" y="-9" as="offset" />
          </mxGeometry>
        </mxCell>
        <mxCell id="aNbf_Czc5NgYehAW_Bbs-88" style="edgeStyle=orthogonalEdgeStyle;rounded=0;orthogonalLoop=1;jettySize=auto;html=1;exitX=1;exitY=1;exitDx=0;exitDy=0;entryX=0.5;entryY=0;entryDx=0;entryDy=0;dashed=1;" edge="1" parent="1" source="aNbf_Czc5NgYehAW_Bbs-61" target="aNbf_Czc5NgYehAW_Bbs-76">
          <mxGeometry relative="1" as="geometry">
            <Array as="points">
              <mxPoint x="359" y="2190" />
              <mxPoint x="587" y="2190" />
            </Array>
          </mxGeometry>
        </mxCell>
        <mxCell id="aNbf_Czc5NgYehAW_Bbs-89" value="二阶段" style="edgeLabel;html=1;align=center;verticalAlign=middle;resizable=0;points=[];" vertex="1" connectable="0" parent="aNbf_Czc5NgYehAW_Bbs-88">
          <mxGeometry x="0.2725" relative="1" as="geometry">
            <mxPoint x="-61" y="-10" as="offset" />
          </mxGeometry>
        </mxCell>
        <mxCell id="aNbf_Czc5NgYehAW_Bbs-61" value="类型分流" style="rhombus;whiteSpace=wrap;html=1;" vertex="1" parent="1">
          <mxGeometry x="298.5" y="2040" width="80" height="40" as="geometry" />
        </mxCell>
        <mxCell id="aNbf_Czc5NgYehAW_Bbs-63" value="" style="endArrow=none;dashed=1;html=1;rounded=0;" edge="1" parent="1">
          <mxGeometry width="50" height="50" relative="1" as="geometry">
            <mxPoint x="520" y="2320" as="sourcePoint" />
            <mxPoint x="520" y="1760" as="targetPoint" />
          </mxGeometry>
        </mxCell>
        <mxCell id="aNbf_Czc5NgYehAW_Bbs-64" value="文档问答&lt;br&gt;（杨武）" style="text;html=1;strokeColor=none;fillColor=none;align=center;verticalAlign=middle;whiteSpace=wrap;rounded=0;" vertex="1" parent="1">
          <mxGeometry x="430" y="1730" width="60" height="30" as="geometry" />
        </mxCell>
        <mxCell id="aNbf_Czc5NgYehAW_Bbs-65" value="" style="endArrow=none;dashed=1;html=1;rounded=0;" edge="1" parent="1">
          <mxGeometry width="50" height="50" relative="1" as="geometry">
            <mxPoint x="759.5" y="2320" as="sourcePoint" />
            <mxPoint x="759.5" y="1760" as="targetPoint" />
          </mxGeometry>
        </mxCell>
        <mxCell id="aNbf_Czc5NgYehAW_Bbs-66" value="大模型 LLM" style="text;html=1;strokeColor=none;fillColor=none;align=center;verticalAlign=middle;whiteSpace=wrap;rounded=0;" vertex="1" parent="1">
          <mxGeometry x="669.5" y="1730" width="60" height="30" as="geometry" />
        </mxCell>
        <mxCell id="aNbf_Czc5NgYehAW_Bbs-70" style="edgeStyle=orthogonalEdgeStyle;rounded=0;orthogonalLoop=1;jettySize=auto;html=1;exitX=0.5;exitY=0;exitDx=0;exitDy=0;entryX=1;entryY=0.75;entryDx=0;entryDy=0;" edge="1" parent="1" source="aNbf_Czc5NgYehAW_Bbs-67" target="aNbf_Czc5NgYehAW_Bbs-58">
          <mxGeometry relative="1" as="geometry" />
        </mxCell>
        <mxCell id="aNbf_Czc5NgYehAW_Bbs-74" style="edgeStyle=orthogonalEdgeStyle;rounded=0;orthogonalLoop=1;jettySize=auto;html=1;exitX=1;exitY=0.25;exitDx=0;exitDy=0;" edge="1" parent="1" source="aNbf_Czc5NgYehAW_Bbs-67">
          <mxGeometry relative="1" as="geometry">
            <mxPoint x="650" y="2050" as="targetPoint" />
          </mxGeometry>
        </mxCell>
        <mxCell id="aNbf_Czc5NgYehAW_Bbs-67" value="文档&lt;br&gt;问答" style="rounded=1;whiteSpace=wrap;html=1;fillColor=#fff2cc;strokeColor=#d6b656;" vertex="1" parent="1">
          <mxGeometry x="440" y="2040" width="40" height="40" as="geometry" />
        </mxCell>
        <mxCell id="aNbf_Czc5NgYehAW_Bbs-73" value="&lt;div style=&quot;text-align: left;&quot;&gt;&lt;span style=&quot;background-color: initial;&quot;&gt;文档问答&lt;/span&gt;&lt;/div&gt;&lt;div style=&quot;text-align: left;&quot;&gt;&lt;span style=&quot;background-color: initial;&quot;&gt;QA抽取&lt;/span&gt;&lt;/div&gt;&lt;div style=&quot;text-align: left;&quot;&gt;&lt;span style=&quot;background-color: initial;&quot;&gt;QA问答&lt;/span&gt;&lt;/div&gt;&lt;div style=&quot;text-align: left;&quot;&gt;&lt;span style=&quot;background-color: initial;&quot;&gt;开放域问答&lt;/span&gt;&lt;/div&gt;&lt;div style=&quot;text-align: left;&quot;&gt;&lt;span style=&quot;background-color: initial;&quot;&gt;AI绘画&lt;/span&gt;&lt;/div&gt;&lt;div style=&quot;text-align: left;&quot;&gt;&lt;span style=&quot;background-color: initial;&quot;&gt;文档创作&lt;/span&gt;&lt;/div&gt;&lt;div style=&quot;text-align: left;&quot;&gt;&lt;span style=&quot;background-color: initial;&quot;&gt;AI写代码&lt;/span&gt;&lt;/div&gt;&lt;div style=&quot;text-align: left;&quot;&gt;&lt;span style=&quot;background-color: initial;&quot;&gt;......&lt;/span&gt;&lt;/div&gt;" style="rounded=1;whiteSpace=wrap;html=1;fillColor=#d5e8d4;strokeColor=#82b366;" vertex="1" parent="1">
          <mxGeometry x="660" y="2020" width="70" height="320" as="geometry" />
        </mxCell>
        <mxCell id="aNbf_Czc5NgYehAW_Bbs-75" value="" style="endArrow=classic;html=1;rounded=0;entryX=1;entryY=0.75;entryDx=0;entryDy=0;" edge="1" parent="1" target="aNbf_Czc5NgYehAW_Bbs-67">
          <mxGeometry width="50" height="50" relative="1" as="geometry">
            <mxPoint x="660" y="2070" as="sourcePoint" />
            <mxPoint x="480" y="2070" as="targetPoint" />
          </mxGeometry>
        </mxCell>
        <mxCell id="aNbf_Czc5NgYehAW_Bbs-82" style="edgeStyle=orthogonalEdgeStyle;rounded=0;orthogonalLoop=1;jettySize=auto;html=1;exitX=0.5;exitY=1;exitDx=0;exitDy=0;" edge="1" parent="1" source="aNbf_Czc5NgYehAW_Bbs-76" target="aNbf_Czc5NgYehAW_Bbs-81">
          <mxGeometry relative="1" as="geometry" />
        </mxCell>
        <mxCell id="aNbf_Czc5NgYehAW_Bbs-76" value="意图分流" style="rhombus;whiteSpace=wrap;html=1;fillColor=#d5e8d4;strokeColor=#82b366;" vertex="1" parent="1">
          <mxGeometry x="546.48" y="2220" width="80" height="40" as="geometry" />
        </mxCell>
        <mxCell id="aNbf_Czc5NgYehAW_Bbs-78" value="" style="endArrow=none;dashed=1;html=1;rounded=0;" edge="1" parent="1">
          <mxGeometry width="50" height="50" relative="1" as="geometry">
            <mxPoint x="640" y="2320" as="sourcePoint" />
            <mxPoint x="640" y="1760" as="targetPoint" />
          </mxGeometry>
        </mxCell>
        <mxCell id="aNbf_Czc5NgYehAW_Bbs-79" value="SV问答&lt;br&gt;接口" style="text;html=1;strokeColor=none;fillColor=none;align=center;verticalAlign=middle;whiteSpace=wrap;rounded=0;" vertex="1" parent="1">
          <mxGeometry x="550" y="1730" width="60" height="30" as="geometry" />
        </mxCell>
        <mxCell id="aNbf_Czc5NgYehAW_Bbs-83" style="edgeStyle=orthogonalEdgeStyle;rounded=0;orthogonalLoop=1;jettySize=auto;html=1;exitX=1;exitY=0.25;exitDx=0;exitDy=0;" edge="1" parent="1" source="aNbf_Czc5NgYehAW_Bbs-81">
          <mxGeometry relative="1" as="geometry">
            <mxPoint x="650" y="2290" as="targetPoint" />
          </mxGeometry>
        </mxCell>
        <mxCell id="aNbf_Czc5NgYehAW_Bbs-85" style="edgeStyle=orthogonalEdgeStyle;rounded=0;orthogonalLoop=1;jettySize=auto;html=1;exitX=0;exitY=0.5;exitDx=0;exitDy=0;" edge="1" parent="1" source="aNbf_Czc5NgYehAW_Bbs-81">
          <mxGeometry relative="1" as="geometry">
            <mxPoint x="307" y="2010" as="targetPoint" />
          </mxGeometry>
        </mxCell>
        <mxCell id="aNbf_Czc5NgYehAW_Bbs-81" value="问答" style="rounded=1;whiteSpace=wrap;html=1;fillColor=#d5e8d4;strokeColor=#82b366;" vertex="1" parent="1">
          <mxGeometry x="561.48" y="2280" width="50" height="40" as="geometry" />
        </mxCell>
        <mxCell id="aNbf_Czc5NgYehAW_Bbs-84" value="" style="endArrow=classic;html=1;rounded=0;entryX=1;entryY=0.5;entryDx=0;entryDy=0;" edge="1" parent="1" target="aNbf_Czc5NgYehAW_Bbs-81">
          <mxGeometry width="50" height="50" relative="1" as="geometry">
            <mxPoint x="660" y="2300" as="sourcePoint" />
            <mxPoint x="621.48" y="2400" as="targetPoint" />
          </mxGeometry>
        </mxCell>
        <mxCell id="aNbf_Czc5NgYehAW_Bbs-91" value="" style="endArrow=classic;html=1;rounded=0;" edge="1" parent="1">
          <mxGeometry width="50" height="50" relative="1" as="geometry">
            <mxPoint x="70" y="1880" as="sourcePoint" />
            <mxPoint x="290" y="1880" as="targetPoint" />
          </mxGeometry>
        </mxCell>
        <mxCell id="aNbf_Czc5NgYehAW_Bbs-96" value="&amp;nbsp;文件预处理 ：url、fid、filename、type" style="edgeLabel;html=1;align=center;verticalAlign=middle;resizable=0;points=[];" vertex="1" connectable="0" parent="aNbf_Czc5NgYehAW_Bbs-91">
          <mxGeometry x="-0.4952" y="3" relative="1" as="geometry">
            <mxPoint x="14" as="offset" />
          </mxGeometry>
        </mxCell>
        <mxCell id="aNbf_Czc5NgYehAW_Bbs-92" value="" style="endArrow=classic;html=1;rounded=0;" edge="1" parent="1">
          <mxGeometry width="50" height="50" relative="1" as="geometry">
            <mxPoint x="290" y="1900" as="sourcePoint" />
            <mxPoint x="70" y="1900" as="targetPoint" />
          </mxGeometry>
        </mxCell>
        <mxCell id="aNbf_Czc5NgYehAW_Bbs-97" value="文件预处理进度" style="edgeLabel;html=1;align=center;verticalAlign=middle;resizable=0;points=[];" vertex="1" connectable="0" parent="aNbf_Czc5NgYehAW_Bbs-92">
          <mxGeometry x="-0.0818" y="-4" relative="1" as="geometry">
            <mxPoint as="offset" />
          </mxGeometry>
        </mxCell>
        <mxCell id="aNbf_Czc5NgYehAW_Bbs-93" value="文件&lt;br&gt;预处理" style="rounded=1;whiteSpace=wrap;html=1;fillColor=#fff2cc;strokeColor=#d6b656;" vertex="1" parent="1">
          <mxGeometry x="440" y="1870" width="40" height="40" as="geometry" />
        </mxCell>
        <mxCell id="aNbf_Czc5NgYehAW_Bbs-94" value="" style="endArrow=classic;html=1;rounded=0;" edge="1" parent="1">
          <mxGeometry width="50" height="50" relative="1" as="geometry">
            <mxPoint x="390" y="1880" as="sourcePoint" />
            <mxPoint x="430" y="1880" as="targetPoint" />
          </mxGeometry>
        </mxCell>
        <mxCell id="aNbf_Czc5NgYehAW_Bbs-95" value="" style="endArrow=classic;html=1;rounded=0;" edge="1" parent="1">
          <mxGeometry width="50" height="50" relative="1" as="geometry">
            <mxPoint x="430" y="1900" as="sourcePoint" />
            <mxPoint x="390" y="1900" as="targetPoint" />
          </mxGeometry>
        </mxCell>
        <mxCell id="aNbf_Czc5NgYehAW_Bbs-99" value="&lt;div&gt;&lt;b&gt;类别：&lt;/b&gt;&lt;/div&gt;&lt;div style=&quot;border-color: var(--border-color);&quot;&gt;文档问答、&lt;span style=&quot;background-color: initial;&quot;&gt;QA抽取&lt;/span&gt;&lt;/div&gt;&lt;div style=&quot;border-color: var(--border-color);&quot;&gt;&lt;span style=&quot;background-color: initial;&quot;&gt;QA问答、AI绘画、开放域对话&lt;/span&gt;&lt;/div&gt;&lt;div&gt;文档创作、AI写代码&lt;/div&gt;" style="text;html=1;strokeColor=none;fillColor=none;align=left;verticalAlign=top;whiteSpace=wrap;rounded=0;" vertex="1" parent="1">
          <mxGeometry x="30" y="2239" width="181" height="92" as="geometry" />
        </mxCell>
        <mxCell id="aNbf_Czc5NgYehAW_Bbs-100" value="对话日志&lt;br&gt;(谭奇力)" style="rounded=1;whiteSpace=wrap;html=1;fillColor=#f8cecc;strokeColor=#b85450;" vertex="1" parent="1">
          <mxGeometry x="316" y="1940" width="51.75" height="30" as="geometry" />
        </mxCell>
      </root>
    </mxGraphModel>
  </diagram>
</mxfile>
